<?xml version="1.0" encoding="UTF-8"?>
<svg width="24" height="24" viewBox="0 0 24 24" fill="none" xmlns="http://www.w3.org/2000/svg">
  <path d="M12 22C6.47715 22 2 17.5228 2 12C2 6.47715 6.47715 2 12 2C17.5228 2 22 6.47715 22 12C22 17.5228 17.5228 22 12 22ZM6.807 10.543C6.20862 10.543 5.723 11.0286 5.723 11.627C5.723 12.2254 6.20862 12.711 6.807 12.711C7.40538 12.711 7.891 12.2254 7.891 11.627C7.891 11.0286 7.40538 10.543 6.807 10.543ZM17.277 10.543C16.6786 10.543 16.193 11.0286 16.193 11.627C16.193 12.2254 16.6786 12.711 17.277 12.711C17.8754 12.711 18.361 12.2254 18.361 11.627C18.361 11.0286 17.8754 10.543 17.277 10.543ZM12.042 16.5C10.0344 16.5 8.55789 15.6779 8.15789 14.7558L9.30316 14.3779C9.59053 15.0221 10.6653 15.6 12.042 15.6C13.4188 15.6 14.5147 15.0221 14.7809 14.3779L15.9262 14.7558C15.5262 15.6779 14.0497 16.5 12.042 16.5Z" fill="currentColor"/>
</svg> 