<?xml version="1.0" encoding="UTF-8"?>
<svg width="24" height="24" viewBox="0 0 24 24" fill="none" xmlns="http://www.w3.org/2000/svg">
  <path d="M22.2647 2.42726C21.9925 2.19876 21.6549 2.05391 21.2977 2.01008C20.9405 1.96625 20.5775 2.02487 20.2527 2.17976L2.43269 9.87976C2.07364 10.0528 1.77231 10.3371 1.57048 10.6931C1.36865 11.0491 1.27678 11.4598 1.30697 11.8707C1.33716 12.2815 1.48786 12.6725 1.73798 12.9941C1.98809 13.3157 2.32529 13.5527 2.70769 13.6748L6.88269 14.8748L8.62269 20.9698C8.66172 21.1025 8.72408 21.2273 8.80669 21.3373C8.89269 21.4473 8.99269 21.5423 9.11769 21.6148C9.24069 21.6898 9.37269 21.7398 9.51769 21.7648C9.66269 21.7898 9.80769 21.7898 9.94769 21.7648C10.0897 21.7398 10.2247 21.6898 10.3477 21.6148C10.4727 21.5423 10.5777 21.4473 10.6627 21.3373L13.4027 17.8748L17.8427 21.4698C18.1541 21.7218 18.5454 21.8586 18.9477 21.8548C19.3501 21.851 19.7387 21.7068 20.0452 21.4487C20.3517 21.1907 20.5554 20.8343 20.6199 20.4414C20.6845 20.0485 20.6057 19.6458 20.3977 19.3048L22.8277 3.41976C22.8923 3.06546 22.8602 2.70032 22.7347 2.36156C22.6092 2.02281 22.3947 1.72419 22.1127 1.49476L22.2647 2.42726ZM9.74769 14.8748L8.65269 19.2748L7.32769 14.4698L17.2127 7.79976L9.74769 14.8748Z" fill="currentColor"/>
</svg> 